<svg xmlns="http://www.w3.org/2000/svg" viewBox="0 0 64 64" fill="none">
  <defs>
    <linearGradient id="g1" x1="8" y1="8" x2="56" y2="56" gradientUnits="userSpaceOnUse">
      <stop stop-color="#61dafb"/>
      <stop offset="0.5" stop-color="#8b5cf6"/>
      <stop offset="1" stop-color="#ec4899"/>
    </linearGradient>
    <linearGradient id="g2" x1="0" y1="0" x2="64" y2="64" gradientUnits="userSpaceOnUse">
      <stop stop-color="#1e2433"/>
      <stop offset="1" stop-color="#0f141d"/>
    </linearGradient>
  </defs>
  <rect x="2" y="2" width="60" height="60" rx="14" fill="url(#g2)" stroke="#253040" stroke-width="2"/>
  <!-- Stylized handshake -->
  <path d="M18 36l8 8c2 2 5 2 7 0l1-1 4 4c1 1 3 1 4 0l4-4c1-1 1-3 0-4l-6-6" stroke="url(#g1)" stroke-width="4" stroke-linecap="round" stroke-linejoin="round"/>
  <path d="M46 28l-6-6c-2-2-5-2-7 0l-3 3-2-2c-2-2-5-2-7 0l-6 6" stroke="url(#g1)" stroke-width="4" stroke-linecap="round" stroke-linejoin="round"/>
  <!-- Stars -->
  <path d="M20 16l1.2 3.6h3.8l-3.1 2.2 1.2 3.6-3.1-2.2-3.1 2.2 1.2-3.6-3.1-2.2h3.8L20 16z" fill="#f5d547"/>
  <path d="M44 14l0.9 2.7h2.9l-2.3 1.6 0.9 2.7-2.3-1.6-2.3 1.6 0.9-2.7-2.3-1.6h2.9L44 14z" fill="#f5d547"/>
</svg>
